<svg version="1.1" id="Layer_1" xmlns="http://www.w3.org/2000/svg" xmlns:xlink="http://www.w3.org/1999/xlink" x="0px" y="0px"
	 width="100%" viewBox="0 0 262 227" enable-background="new 0 0 262 227" xml:space="preserve">
<path fill="#FFFFFF" opacity="1.000000" stroke="none" 
	d="
M73.000000,228.000000 
	C64.312439,228.000000 55.624874,228.000000 46.577808,227.670563 
	C51.529282,224.388550 54.512550,220.143555 54.033226,213.796814 
	C53.833298,211.149536 53.980824,208.474426 54.004059,205.812256 
	C54.048355,200.736893 51.628094,197.170044 46.796852,196.027924 
	C40.980309,194.652893 34.960926,194.151520 29.111383,192.891205 
	C27.284634,192.497620 25.300337,191.176971 24.215679,189.680786 
	C23.653847,188.905807 24.426556,186.230057 25.417299,185.431290 
	C28.907894,182.617065 34.979355,183.855453 37.838634,187.488953 
	C38.354683,188.144745 39.240166,188.903458 39.977013,188.926956 
	C44.249886,189.063156 48.529320,188.993515 52.762123,188.993515 
	C53.502579,176.756622 47.932770,172.220200 37.344109,172.015823 
	C32.520370,171.922714 27.693254,171.981216 22.867825,172.003983 
	C13.419596,172.048553 9.832183,175.793304 8.131947,184.258316 
	C7.521560,187.297241 7.667641,190.612213 8.103704,193.711823 
	C9.060847,200.515320 13.970221,204.509720 20.792679,205.055038 
	C25.649515,205.443207 30.510685,206.127731 35.272404,207.139130 
	C36.678150,207.437698 38.381313,209.115051 38.787632,210.500839 
	C39.141785,211.708725 38.271011,213.846420 37.231052,214.791611 
	C33.167297,218.485046 23.813770,215.490295 22.276407,210.221970 
	C17.657772,210.221970 13.050955,210.221970 8.481185,210.221970 
	C7.045878,220.930862 8.425233,223.763626 17.000000,228.000000 
	C11.680109,228.000000 6.360218,228.000000 1.000000,228.000000 
	C1.000000,175.645782 1.000000,123.291550 1.351218,70.584740 
	C3.272465,78.171402 11.831682,84.597206 19.355999,84.102669 
	C26.304787,83.645958 33.307484,84.043633 40.285957,83.995529 
	C48.571587,83.938423 54.990856,80.772766 58.626560,72.921120 
	C59.125290,71.844070 60.168953,71.019348 60.977264,70.047440 
	C60.994205,70.017082 60.924747,70.013840 60.956268,70.394646 
	C62.827332,79.010330 70.422623,83.886299 76.428146,83.958466 
	C89.205147,84.111992 101.988678,84.183655 114.762886,83.940224 
	C122.767479,83.787674 131.245636,77.272247 132.040985,69.013336 
	C132.006241,69.017273 132.034790,69.081116 132.387985,69.179901 
	C135.016418,77.831902 141.778061,83.910606 149.385681,83.981888 
	C159.521637,84.076851 169.690674,84.500610 179.786667,83.858452 
	C188.895905,83.279053 196.097931,78.677963 197.036438,70.002029 
	C197.004318,70.001335 197.026138,70.061806 197.406555,70.041504 
	C198.081512,70.118973 198.565918,70.138222 198.643463,70.325722 
	C203.147568,81.217392 207.274109,84.003983 218.968628,84.003998 
	C225.965332,84.004005 232.989227,83.612465 239.952347,84.096115 
	C250.301804,84.814964 257.954071,81.058159 263.000000,72.000000 
	C263.000000,124.000000 263.000000,176.000000 262.500000,227.534271 
	C262.000000,223.133896 262.000000,219.199265 262.000000,214.803558 
	C252.648865,214.803558 243.910446,214.803558 235.205841,214.803558 
	C235.205841,211.703339 235.205841,209.092560 235.205841,205.994781 
	C243.799301,205.994781 252.202759,205.994781 260.710876,205.994781 
	C260.710876,201.774475 260.710876,198.049957 260.710876,193.847260 
	C252.024887,193.847260 243.617630,193.847260 235.368500,193.847260 
	C235.368500,190.952484 235.368500,188.563690 235.368500,185.868561 
	C244.340317,185.868561 252.947708,185.868561 261.731812,185.868561 
	C261.731812,181.152405 261.731812,176.761765 261.731812,172.304565 
	C247.740646,172.304565 234.019501,172.304565 220.000000,172.304565 
	C220.000000,191.071716 220.000000,209.535858 220.000000,228.000000 
	C217.299988,228.000000 214.599976,228.000000 211.449982,227.533478 
	C211.000000,224.238205 210.945160,221.408173 211.011246,218.580948 
	C211.155014,212.430084 209.788040,207.099777 203.127533,204.451599 
	C208.673172,202.361969 210.968536,198.580368 210.992126,191.873795 
	C211.015945,185.102829 211.416336,178.145782 203.906235,174.440567 
	C203.339432,174.160919 202.651825,174.080017 202.009033,174.008179 
	C198.602249,173.627487 195.199615,173.149277 191.781189,172.945312 
	C183.287231,172.438507 174.785507,172.061920 166.000000,171.618561 
	C166.000000,191.100388 166.000000,209.550201 166.000000,228.000000 
	C159.645599,228.000000 153.291214,228.000000 146.596268,227.657379 
	C152.638794,225.475922 156.793884,220.290970 156.951431,213.262421 
	C157.148804,204.457306 157.132217,195.641769 156.956482,186.835739 
	C156.819855,179.988846 152.164856,173.927948 145.576797,173.129562 
	C137.922745,172.201996 130.061432,171.515533 122.429382,172.224289 
	C111.306740,173.257202 107.836800,181.373611 107.974442,189.062668 
	C108.096405,195.875412 108.120216,202.694717 107.969597,209.506317 
	C107.780861,218.041870 110.528648,224.693588 119.000000,228.000000 
	C109.312439,228.000000 99.624878,228.000000 89.468658,227.531342 
	C89.000000,213.473999 89.000000,199.885330 89.000000,185.813202 
	C93.994141,185.813202 98.393791,185.813202 102.620522,185.813202 
	C102.620522,180.922302 102.620522,176.529572 102.620522,172.230881 
	C87.974693,172.230881 73.709366,172.230881 59.269028,172.230881 
	C59.269028,176.854019 59.269028,181.243805 59.269028,186.123810 
	C63.924782,186.123810 68.330589,186.123810 73.000000,186.123810 
	C73.000000,200.409988 73.000000,214.205002 73.000000,228.000000 
M16.546869,92.000000 
	C13.782058,92.000000 11.017246,92.000000 8.349418,92.000000 
	C8.349418,116.359756 8.349418,140.068649 8.349418,163.999313 
	C23.169056,163.999313 37.683708,164.691818 52.098755,163.790817 
	C64.733078,163.001114 70.260582,157.916016 71.692505,146.049133 
	C73.081734,134.536011 72.376640,122.707512 71.873482,111.048500 
	C71.468971,101.675232 65.886765,95.328247 57.228519,93.182571 
	C54.084091,92.403320 50.758102,92.097137 47.508240,92.051300 
	C37.519608,91.910454 27.527725,92.000000 16.546869,92.000000 
M225.502960,92.000000 
	C220.857910,92.000000 216.212860,92.000000 211.428497,92.000000 
	C204.577026,115.997665 197.786270,139.782654 190.925858,163.811676 
	C198.428421,163.811676 205.543320,163.811676 212.689316,163.811676 
	C213.488388,160.828384 214.002823,157.914719 215.099258,155.239563 
	C215.635208,153.931900 217.213913,152.202621 218.390137,152.147537 
	C224.835327,151.845612 231.302063,152.003586 237.527161,152.003586 
	C238.577957,156.246613 239.506485,159.995941 240.428467,163.718781 
	C247.657822,163.718781 254.731537,163.718781 262.306763,163.718781 
	C256.158081,141.988647 250.182495,120.631477 244.047760,99.320122 
	C241.925613,91.948013 241.744980,92.000015 233.987656,92.000000 
	C231.491455,91.999992 228.995255,92.000000 225.502960,92.000000 
M127.032761,163.938858 
	C133.943298,163.938858 140.853851,163.938858 147.983597,163.938858 
	C141.536972,140.610977 135.281921,117.813515 128.831406,95.071487 
	C128.474472,93.813072 126.518959,92.169983 125.269287,92.136589 
	C115.977730,91.888275 106.676498,92.001854 97.313408,92.001854 
	C90.389946,116.023788 83.552734,139.746490 76.630577,163.763885 
	C84.552338,163.763885 91.653023,163.763885 98.584816,163.763885 
	C99.577789,159.753952 100.506081,156.005249 101.497902,152.000000 
	C104.717857,152.000000 107.860901,152.000000 111.003937,152.000000 
	C122.933243,152.000000 122.933243,152.000000 127.032761,163.938858 
M196.245163,92.016998 
	C177.968048,92.016998 159.690918,92.016998 141.300598,92.016998 
	C141.300598,97.900375 141.300598,103.290115 141.300598,109.186096 
	C147.324890,109.186096 153.058456,109.186096 159.277924,109.186096 
	C159.277924,127.752716 159.277924,145.813217 159.277924,163.736938 
	C166.395142,163.736938 173.002197,163.736938 180.108093,163.736938 
	C180.108093,145.420135 180.108093,127.359200 180.108093,108.799820 
	C186.340042,108.799820 192.075623,108.799820 198.392456,108.799820 
	C197.967163,102.881050 197.580704,97.502892 196.245163,92.016998 
z"/>
<path fill="#2F62AC" opacity="1.000000" stroke="none" 
	d="
M91.000000,1.000000 
	C104.354225,1.000000 117.708458,1.000000 131.600998,1.464425 
	C132.165253,21.705168 132.191208,41.481487 132.161804,61.673920 
	C132.082581,64.420395 132.058685,66.750755 132.034790,69.081116 
	C132.034790,69.081116 132.006241,69.017273 131.699615,69.075424 
	C127.176857,76.723366 120.701866,80.804115 112.053497,80.950447 
	C101.103607,81.135712 90.147873,81.042885 79.195251,80.974777 
	C72.594215,80.933739 67.447037,77.973213 63.500557,72.751648 
	C62.749420,71.757820 61.788742,70.922371 60.924747,70.013840 
	C60.924747,70.013840 60.994205,70.017082 61.087284,69.666939 
	C60.795425,67.848999 60.410492,66.381203 60.005550,64.450394 
	C59.931454,53.037807 60.020020,42.084599 59.741566,31.140730 
	C59.650967,27.580002 60.915249,25.364761 63.628708,23.223133 
	C72.852982,15.942768 81.890907,8.426304 91.000000,1.000000 
z"/>
<path fill="#E06320" opacity="1.000000" stroke="none" 
	d="
M132.217148,61.257805 
	C132.191208,41.481487 132.165253,21.705168 132.069656,1.464425 
	C143.354233,1.000000 154.708450,1.000000 166.561096,1.343400 
	C177.404709,10.124914 187.749893,18.563028 198.057159,27.468344 
	C197.940552,40.833954 197.861877,53.732365 197.522125,66.905830 
	C197.182739,68.141190 197.104431,69.101501 197.026123,70.061806 
	C197.026138,70.061806 197.004318,70.001335 196.684692,70.017433 
	C192.154892,76.966606 185.924835,80.700058 177.893921,80.932014 
	C169.085205,81.186440 160.260468,81.132820 151.448181,80.950218 
	C141.902634,80.752426 134.756226,74.464317 132.996231,65.110466 
	C132.753998,63.822964 132.477692,62.541866 132.217148,61.257805 
z"/>
<path fill="#E0631F" opacity="1.000000" stroke="none" 
	d="
M90.531342,1.000000 
	C81.890907,8.426304 72.852982,15.942768 63.628708,23.223133 
	C60.915249,25.364761 59.650967,27.580002 59.741566,31.140730 
	C60.020020,42.084599 59.931454,53.037807 59.843414,64.779251 
	C56.084457,76.205269 49.459511,80.943810 38.118824,80.990974 
	C34.305195,81.006828 30.471207,80.739441 26.681543,81.041252 
	C15.367144,81.942352 6.316561,78.954575 1.841660,67.447945 
	C1.754363,67.223473 1.288983,67.146034 1.000000,67.000000 
	C1.000000,53.645771 1.000000,40.291542 1.346298,26.364620 
	C3.413756,24.878738 5.082096,23.843672 6.864282,23.071291 
	C23.898523,15.688822 40.952026,8.350786 58.000000,1.000000 
	C68.687561,1.000000 79.375122,1.000000 90.531342,1.000000 
z"/>
<path fill="#1F61AC" opacity="1.000000" stroke="none" 
	d="
M197.783188,66.630768 
	C197.861877,53.732365 197.940552,40.833954 198.519196,27.467436 
	C220.346115,26.999552 241.673050,26.999777 263.000000,27.000000 
	C263.000000,40.020893 263.000000,53.041790 262.758789,66.773071 
	C259.112518,76.063637 252.284637,80.842148 242.925934,80.969330 
	C235.107742,81.075584 227.286758,80.957436 219.467377,81.001358 
	C210.325882,81.052696 203.317383,77.759132 199.720322,68.810356 
	C199.379089,67.961441 198.443085,67.351601 197.783188,66.630768 
z"/>
<path fill="#1F61AC" opacity="1.000000" stroke="none" 
	d="
M119.468658,228.000000 
	C110.528648,224.693588 107.780861,218.041870 107.969597,209.506317 
	C108.120216,202.694717 108.096405,195.875412 107.974442,189.062668 
	C107.836800,181.373611 111.306740,173.257202 122.429382,172.224289 
	C130.061432,171.515533 137.922745,172.201996 145.576797,173.129562 
	C152.164856,173.927948 156.819855,179.988846 156.956482,186.835739 
	C157.132217,195.641769 157.148804,204.457306 156.951431,213.262421 
	C156.793884,220.290970 152.638794,225.475922 146.127869,227.657379 
	C137.312439,228.000000 128.624878,228.000000 119.468658,228.000000 
M140.710938,211.757980 
	C140.807251,204.797516 141.178574,197.822159 140.803085,190.887238 
	C140.711258,189.191391 138.081558,186.185562 136.777145,186.268677 
	C132.522659,186.539795 127.361374,183.578140 124.114685,188.834595 
	C124.035469,188.962845 124.048546,189.153915 124.036621,189.317032 
	C123.690598,194.048569 122.659897,198.862457 123.213020,203.486832 
	C123.683243,207.418137 122.411736,213.058441 128.168854,214.522522 
	C132.255325,215.561737 136.680969,216.058105 140.710938,211.757980 
z"/>
<path fill="#1F61AC" opacity="1.000000" stroke="none" 
	d="
M166.466125,228.000000 
	C166.000000,209.550201 166.000000,191.100388 166.000000,171.618561 
	C174.785507,172.061920 183.287231,172.438507 191.781189,172.945312 
	C195.199615,173.149277 198.602249,173.627487 202.009033,174.008179 
	C202.651825,174.080017 203.339432,174.160919 203.906235,174.440567 
	C211.416336,178.145782 211.015945,185.102829 210.992126,191.873795 
	C210.968536,198.580368 208.673172,202.361969 203.127533,204.451599 
	C209.788040,207.099777 211.155014,212.430084 211.011246,218.580948 
	C210.945160,221.408173 211.000000,224.238205 211.000000,227.533478 
	C205.977905,228.000000 200.955811,228.000000 195.466858,227.536758 
	C194.989334,212.496353 196.908951,211.478455 182.116211,212.107117 
	C181.841232,212.118790 181.578369,212.415558 181.000000,212.768265 
	C181.000000,217.724319 181.000000,222.862152 181.000000,228.000000 
	C176.310745,228.000000 171.621490,228.000000 166.466125,228.000000 
M187.320648,199.000000 
	C193.774017,198.896973 195.481079,197.189850 194.996658,191.323685 
	C194.543610,185.837433 191.612106,184.809418 181.274643,186.557495 
	C181.274643,190.585220 181.274643,194.623184 181.274643,199.000000 
	C183.166275,199.000000 184.786697,199.000000 187.320648,199.000000 
z"/>
<path fill="#1F61AC" opacity="1.000000" stroke="none" 
	d="
M17.468657,228.000000 
	C8.425233,223.763626 7.045878,220.930862 8.481185,210.221970 
	C13.050955,210.221970 17.657772,210.221970 22.276407,210.221970 
	C23.813770,215.490295 33.167297,218.485046 37.231052,214.791611 
	C38.271011,213.846420 39.141785,211.708725 38.787632,210.500839 
	C38.381313,209.115051 36.678150,207.437698 35.272404,207.139130 
	C30.510685,206.127731 25.649515,205.443207 20.792679,205.055038 
	C13.970221,204.509720 9.060847,200.515320 8.103704,193.711823 
	C7.667641,190.612213 7.521560,187.297241 8.131947,184.258316 
	C9.832183,175.793304 13.419596,172.048553 22.867825,172.003983 
	C27.693254,171.981216 32.520370,171.922714 37.344109,172.015823 
	C47.932770,172.220200 53.502579,176.756622 52.762123,188.993515 
	C48.529320,188.993515 44.249886,189.063156 39.977013,188.926956 
	C39.240166,188.903458 38.354683,188.144745 37.838634,187.488953 
	C34.979355,183.855453 28.907894,182.617065 25.417299,185.431290 
	C24.426556,186.230057 23.653847,188.905807 24.215679,189.680786 
	C25.300337,191.176971 27.284634,192.497620 29.111383,192.891205 
	C34.960926,194.151520 40.980309,194.652893 46.796852,196.027924 
	C51.628094,197.170044 54.048355,200.736893 54.004059,205.812256 
	C53.980824,208.474426 53.833298,211.149536 54.033226,213.796814 
	C54.512550,220.143555 51.529282,224.388550 46.109154,227.670563 
	C36.645771,228.000000 27.291542,228.000000 17.468657,228.000000 
z"/>
<path fill="#1F61AC" opacity="1.000000" stroke="none" 
	d="
M220.468658,228.000000 
	C220.000000,209.535858 220.000000,191.071716 220.000000,172.304565 
	C234.019501,172.304565 247.740646,172.304565 261.731812,172.304565 
	C261.731812,176.761765 261.731812,181.152405 261.731812,185.868561 
	C252.947708,185.868561 244.340317,185.868561 235.368500,185.868561 
	C235.368500,188.563690 235.368500,190.952484 235.368500,193.847260 
	C243.617630,193.847260 252.024887,193.847260 260.710876,193.847260 
	C260.710876,198.049957 260.710876,201.774475 260.710876,205.994781 
	C252.202759,205.994781 243.799301,205.994781 235.205841,205.994781 
	C235.205841,209.092560 235.205841,211.703339 235.205841,214.803558 
	C243.910446,214.803558 252.648865,214.803558 262.000000,214.803558 
	C262.000000,219.199265 262.000000,223.133896 262.000000,227.534271 
	C248.312439,228.000000 234.624878,228.000000 220.468658,228.000000 
z"/>
<path fill="#2F62AB" opacity="1.000000" stroke="none" 
	d="
M263.000000,26.666668 
	C241.673050,26.999777 220.346115,26.999552 198.557129,27.000237 
	C187.749893,18.563028 177.404709,10.124914 167.029755,1.343400 
	C177.687561,1.000000 188.375122,1.000000 199.671021,1.347092 
	C212.829437,6.458381 225.359650,11.275882 237.936646,15.967952 
	C246.256363,19.071758 254.643204,21.995590 263.000000,25.000000 
	C263.000000,25.444445 263.000000,25.888889 263.000000,26.666668 
z"/>
<path fill="#1F61AC" opacity="1.000000" stroke="none" 
	d="
M73.466858,228.000000 
	C73.000000,214.205002 73.000000,200.409988 73.000000,186.123810 
	C68.330589,186.123810 63.924782,186.123810 59.269028,186.123810 
	C59.269028,181.243805 59.269028,176.854019 59.269028,172.230881 
	C73.709366,172.230881 87.974693,172.230881 102.620522,172.230881 
	C102.620522,176.529572 102.620522,180.922302 102.620522,185.813202 
	C98.393791,185.813202 93.994141,185.813202 89.000000,185.813202 
	C89.000000,199.885330 89.000000,213.473999 89.000000,227.531342 
	C83.977905,228.000000 78.955818,228.000000 73.466858,228.000000 
z"/>
<path fill="#FFFFFF" opacity="1.000000" stroke="none" 
	d="
M263.000000,24.531307 
	C254.643204,21.995590 246.256363,19.071758 237.936646,15.967952 
	C225.359650,11.275882 212.829437,6.458381 200.139679,1.347092 
	C220.893814,1.000000 241.787643,1.000000 263.000000,1.000000 
	C263.000000,8.684606 263.000000,16.373611 263.000000,24.531307 
z"/>
<path fill="#FFFFFF" opacity="1.000000" stroke="none" 
	d="
M57.531342,1.000000 
	C40.952026,8.350786 23.898523,15.688822 6.864282,23.071291 
	C5.082096,23.843672 3.413756,24.878738 1.346298,25.895964 
	C1.000000,17.711384 1.000000,9.422768 1.000000,1.000000 
	C19.687372,1.000000 38.375027,1.000000 57.531342,1.000000 
z"/>
<path fill="#2D392E" opacity="1.000000" stroke="none" 
	d="
M197.522125,66.905823 
	C198.443085,67.351601 199.379089,67.961441 199.720322,68.810356 
	C203.317383,77.759132 210.325882,81.052696 219.467377,81.001358 
	C227.286758,80.957436 235.107742,81.075584 242.925934,80.969330 
	C252.284637,80.842148 259.112518,76.063637 262.758789,67.241730 
	C263.000000,68.388893 263.000000,69.777779 263.000000,71.583336 
	C257.954071,81.058159 250.301804,84.814964 239.952347,84.096115 
	C232.989227,83.612465 225.965332,84.004005 218.968628,84.003998 
	C207.274109,84.003983 203.147568,81.217392 198.643463,70.325722 
	C198.565918,70.138222 198.081512,70.118973 197.406540,70.041504 
	C197.104431,69.101501 197.182739,68.141190 197.522125,66.905823 
z"/>
<path fill="#FFFFFF" opacity="1.000000" stroke="none" 
	d="
M181.464645,228.000000 
	C181.000000,222.862152 181.000000,217.724319 181.000000,212.768265 
	C181.578369,212.415558 181.841232,212.118790 182.116211,212.107117 
	C196.908951,211.478455 194.989334,212.496353 195.000000,227.536758 
	C190.643097,228.000000 186.286194,228.000000 181.464645,228.000000 
z"/>
<path fill="#313A2B" opacity="1.000000" stroke="none" 
	d="
M1.000000,67.375000 
	C1.288983,67.146034 1.754363,67.223473 1.841660,67.447945 
	C6.316561,78.954575 15.367144,81.942352 26.681543,81.041252 
	C30.471207,80.739441 34.305195,81.006828 38.118824,80.990974 
	C49.459511,80.943810 56.084457,76.205269 59.863419,65.242264 
	C60.410492,66.381203 60.795425,67.848999 61.070343,69.697296 
	C60.168953,71.019348 59.125290,71.844070 58.626560,72.921120 
	C54.990856,80.772766 48.571587,83.938423 40.285957,83.995529 
	C33.307484,84.043633 26.304787,83.645958 19.355999,84.102669 
	C11.831682,84.597206 3.272465,78.171402 1.351218,70.116081 
	C1.000000,69.250000 1.000000,68.500000 1.000000,67.375000 
z"/>
<path fill="#E1631F" opacity="1.000000" stroke="none" 
	d="
M17.041988,92.000000 
	C27.527725,92.000000 37.519608,91.910454 47.508240,92.051300 
	C50.758102,92.097137 54.084091,92.403320 57.228519,93.182571 
	C65.886765,95.328247 71.468971,101.675232 71.873482,111.048500 
	C72.376640,122.707512 73.081734,134.536011 71.692505,146.049133 
	C70.260582,157.916016 64.733078,163.001114 52.098755,163.790817 
	C37.683708,164.691818 23.169056,163.999313 8.349418,163.999313 
	C8.349418,140.068649 8.349418,116.359756 8.349418,92.000000 
	C11.017246,92.000000 13.782058,92.000000 17.041988,92.000000 
M28.000000,114.615601 
	C28.000000,125.358414 28.000000,136.101227 28.000000,146.999680 
	C34.071972,146.999680 39.394859,146.928452 44.714687,147.025314 
	C48.126316,147.087418 50.805382,145.905487 50.934383,142.311081 
	C51.263523,133.140366 51.385124,123.952721 51.223633,114.778297 
	C51.153919,110.817696 48.071320,109.174805 44.474674,109.049591 
	C39.181561,108.865326 33.877266,109.002075 28.267302,109.002075 
	C28.166578,110.751549 28.083303,112.197983 28.000000,114.615601 
z"/>
<path fill="#E1631F" opacity="1.000000" stroke="none" 
	d="
M226.001007,92.000000 
	C228.995255,92.000000 231.491455,91.999992 233.987656,92.000000 
	C241.744980,92.000015 241.925613,91.948013 244.047760,99.320122 
	C250.182495,120.631477 256.158081,141.988647 262.306763,163.718781 
	C254.731537,163.718781 247.657822,163.718781 240.428467,163.718781 
	C239.506485,159.995941 238.577957,156.246613 237.527161,152.003586 
	C231.302063,152.003586 224.835327,151.845612 218.390137,152.147537 
	C217.213913,152.202621 215.635208,153.931900 215.099258,155.239563 
	C214.002823,157.914719 213.488388,160.828384 212.689316,163.811676 
	C205.543320,163.811676 198.428421,163.811676 190.925858,163.811676 
	C197.786270,139.782654 204.577026,115.997665 211.428497,92.000000 
	C216.212860,92.000000 220.857910,92.000000 226.001007,92.000000 
M222.010391,125.650848 
	C221.361465,128.952896 220.712540,132.254944 220.015839,135.800064 
	C224.703659,135.800064 229.104034,135.800064 233.622375,135.800064 
	C231.381302,126.513847 229.186462,117.419243 226.774750,107.426010 
	C225.015335,113.925156 223.543854,119.360764 222.010391,125.650848 
z"/>
<path fill="#E1631F" opacity="1.000000" stroke="none" 
	d="
M126.626205,163.753738 
	C122.933243,152.000000 122.933243,152.000000 111.003937,152.000000 
	C107.860901,152.000000 104.717857,152.000000 101.497902,152.000000 
	C100.506081,156.005249 99.577789,159.753952 98.584816,163.763885 
	C91.653023,163.763885 84.552338,163.763885 76.630577,163.763885 
	C83.552734,139.746490 90.389946,116.023788 97.313408,92.001854 
	C106.676498,92.001854 115.977730,91.888275 125.269287,92.136589 
	C126.518959,92.169983 128.474472,93.813072 128.831406,95.071487 
	C135.281921,117.813515 141.536972,140.610977 147.983597,163.938858 
	C140.853851,163.938858 133.943298,163.938858 126.626205,163.753738 
M106.013191,133.728775 
	C106.770027,134.483810 107.484978,135.833862 108.290977,135.890625 
	C111.735329,136.133102 115.206558,135.993881 119.363342,135.993881 
	C117.094193,126.420082 114.955780,117.397888 112.554207,107.265404 
	C110.197815,116.556900 108.131706,124.703804 106.013191,133.728775 
z"/>
<path fill="#E1631F" opacity="1.000000" stroke="none" 
	d="
M196.719711,92.070862 
	C197.580704,97.502892 197.967163,102.881050 198.392456,108.799820 
	C192.075623,108.799820 186.340042,108.799820 180.108093,108.799820 
	C180.108093,127.359200 180.108093,145.420135 180.108093,163.736938 
	C173.002197,163.736938 166.395142,163.736938 159.277924,163.736938 
	C159.277924,145.813217 159.277924,127.752716 159.277924,109.186096 
	C153.058456,109.186096 147.324890,109.186096 141.300598,109.186096 
	C141.300598,103.290115 141.300598,97.900375 141.300598,92.016998 
	C159.690918,92.016998 177.968048,92.016998 196.719711,92.070862 
z"/>
<path fill="#313A2B" opacity="1.000000" stroke="none" 
	d="
M60.956268,70.394646 
	C61.788742,70.922371 62.749420,71.757820 63.500557,72.751648 
	C67.447037,77.973213 72.594215,80.933739 79.195251,80.974777 
	C90.147873,81.042885 101.103607,81.135712 112.053497,80.950447 
	C120.701866,80.804115 127.176857,76.723366 131.734344,69.071487 
	C131.245636,77.272247 122.767479,83.787674 114.762886,83.940224 
	C101.988678,84.183655 89.205147,84.111992 76.428146,83.958466 
	C70.422623,83.886299 62.827332,79.010330 60.956268,70.394646 
z"/>
<path fill="#313A2B" opacity="1.000000" stroke="none" 
	d="
M132.161804,61.673920 
	C132.477692,62.541866 132.753998,63.822964 132.996231,65.110466 
	C134.756226,74.464317 141.902634,80.752426 151.448181,80.950218 
	C160.260468,81.132820 169.085205,81.186440 177.893921,80.932014 
	C185.924835,80.700058 192.154892,76.966606 196.716827,70.018127 
	C196.097931,78.677963 188.895905,83.279053 179.786667,83.858452 
	C169.690674,84.500610 159.521637,84.076851 149.385681,83.981888 
	C141.778061,83.910606 135.016418,77.831902 132.387985,69.179901 
	C132.058685,66.750755 132.082581,64.420395 132.161804,61.673920 
z"/>
<path fill="#FFFFFF" opacity="1.000000" stroke="none" 
	d="
M140.408295,212.051834 
	C136.680969,216.058105 132.255325,215.561737 128.168854,214.522522 
	C122.411736,213.058441 123.683243,207.418137 123.213020,203.486832 
	C122.659897,198.862457 123.690598,194.048569 124.036621,189.317032 
	C124.048546,189.153915 124.035469,188.962845 124.114685,188.834595 
	C127.361374,183.578140 132.522659,186.539795 136.777145,186.268677 
	C138.081558,186.185562 140.711258,189.191391 140.803085,190.887238 
	C141.178574,197.822159 140.807251,204.797516 140.408295,212.051834 
z"/>
<path fill="#FFFFFF" opacity="1.000000" stroke="none" 
	d="
M186.863892,199.000000 
	C184.786697,199.000000 183.166275,199.000000 181.274643,199.000000 
	C181.274643,194.623184 181.274643,190.585220 181.274643,186.557495 
	C191.612106,184.809418 194.543610,185.837433 194.996658,191.323685 
	C195.481079,197.189850 193.774017,198.896973 186.863892,199.000000 
z"/>
<path fill="#FFFFFF" opacity="1.000000" stroke="none" 
	d="
M28.000013,114.130005 
	C28.083303,112.197983 28.166578,110.751549 28.267302,109.002075 
	C33.877266,109.002075 39.181561,108.865326 44.474674,109.049591 
	C48.071320,109.174805 51.153919,110.817696 51.223633,114.778297 
	C51.385124,123.952721 51.263523,133.140366 50.934383,142.311081 
	C50.805382,145.905487 48.126316,147.087418 44.714687,147.025314 
	C39.394859,146.928452 34.071972,146.999680 28.000000,146.999680 
	C28.000000,136.101227 28.000000,125.358414 28.000013,114.130005 
z"/>
<path fill="#FFFFFF" opacity="1.000000" stroke="none" 
	d="
M222.041382,125.223618 
	C223.543854,119.360764 225.015335,113.925156 226.774750,107.426010 
	C229.186462,117.419243 231.381302,126.513847 233.622375,135.800064 
	C229.104034,135.800064 224.703659,135.800064 220.015839,135.800064 
	C220.712540,132.254944 221.361465,128.952896 222.041382,125.223618 
z"/>
<path fill="#FFFFFF" opacity="1.000000" stroke="none" 
	d="
M106.039398,133.289734 
	C108.131706,124.703804 110.197815,116.556900 112.554207,107.265404 
	C114.955780,117.397888 117.094193,126.420082 119.363342,135.993881 
	C115.206558,135.993881 111.735329,136.133102 108.290977,135.890625 
	C107.484978,135.833862 106.770027,134.483810 106.039398,133.289734 
z"/>
</svg>